<?xml version="1.0" encoding="utf-8"?>
<!-- Generator: Adobe Illustrator 23.0.1, SVG Export Plug-In . SVG Version: 6.00 Build 0)  -->
<svg version="1.1" id="Layer_1" xmlns="http://www.w3.org/2000/svg" xmlns:xlink="http://www.w3.org/1999/xlink" x="0px" y="0px"
	 viewBox="0 0 240 240" style="enable-background:new 0 0 240 240;" xml:space="preserve">
<style type="text/css">
	.st0{fill:none;}
	.st1{fill:#969696;}
	.st2{fill:#FFFFFF;}
	.st3{fill:#FFFFFF;stroke:#FFFFFF;stroke-width:0.75;stroke-miterlimit:10;}
</style>
<g>
	<rect class="st0" width="240" height="240"/>
	<g>
		<g>
			<rect x="20" y="20" class="st1" width="200" height="200"/>
		</g>
		<g>
			<circle class="st2" cx="174" cy="67" r="14"/>
			<path class="st2" d="M174,54c7.17,0,13,5.83,13,13s-5.83,13-13,13s-13-5.83-13-13S166.83,54,174,54 M174,52
				c-8.28,0-15,6.72-15,15s6.72,15,15,15s15-6.72,15-15S182.28,52,174,52L174,52z"/>
		</g>
		<polyline class="st3" points="29.5,179.25 81.32,122.25 95.41,137.75 137.23,91.75 209.5,179.75 		"/>
	</g>
</g>
</svg>
